<svg version="1.0" xmlns="http://www.w3.org/2000/svg"
 width="512.000000pt" height="512.000000pt" viewBox="0 0 512.000000 512.000000"
 preserveAspectRatio="xMidYMid meet">

<g transform="translate(0.000000,512.000000) scale(0.100000,-0.100000)"
fill="#000000" stroke="none">
<path d="M2080 5004 c-245 -62 -456 -118 -469 -126 -49 -27 -61 -70 -61 -219
0 -123 2 -139 21 -163 16 -20 29 -26 59 -26 58 0 64 15 70 159 l5 126 428 108
427 107 428 -107 427 -108 0 -460 c0 -445 -1 -463 -23 -545 -30 -114 -97 -250
-166 -336 -63 -80 -134 -139 -449 -374 l-217 -163 -218 163 c-412 310 -464
360 -548 535 -70 144 -85 218 -91 449 -5 176 -8 201 -24 217 -29 29 -83 25
-109 -8 -22 -27 -22 -34 -18 -224 l5 -195 -44 -18 c-76 -32 -195 -116 -268
-190 -80 -81 -140 -168 -186 -271 l-33 -72 -102 -6 c-234 -15 -418 -122 -527
-308 -117 -199 -112 -460 13 -645 l29 -44 -34 -72 c-19 -40 -47 -118 -62 -173
l-27 -100 -4 -481 c-3 -408 -1 -490 12 -547 20 -87 67 -178 120 -236 l43 -46
6 -96 c16 -253 167 -439 399 -494 91 -21 636 -21 727 0 188 45 343 205 383
396 l12 59 122 0 c120 0 123 0 143 26 24 31 26 43 9 79 -17 38 -64 47 -230 43
-183 -4 -186 -6 -198 -126 -5 -45 -18 -101 -29 -126 -30 -69 -111 -149 -184
-182 l-62 -29 -335 0 -335 0 -60 29 c-148 73 -215 197 -215 399 l0 80 -64 67
c-43 46 -72 88 -87 127 l-24 58 0 485 c0 475 0 487 23 575 13 50 43 131 68
181 24 49 44 102 44 117 0 16 -15 47 -37 74 -147 192 -132 450 35 617 104 105
224 146 423 146 112 0 114 1 148 100 64 182 202 344 363 426 26 13 51 24 55
24 5 0 19 -30 33 -67 14 -37 27 -71 28 -75 2 -5 -1 -8 -7 -8 -26 0 -145 -86
-195 -142 -68 -74 -110 -161 -172 -349 l-48 -146 -39 28 c-53 38 -132 53 -242
45 -117 -8 -198 -45 -255 -117 -50 -63 -64 -108 -64 -194 0 -143 86 -251 238
-299 16 -6 12 -13 -31 -59 -92 -97 -152 -205 -190 -338 -16 -58 -18 -109 -18
-534 0 -419 2 -473 17 -500 24 -46 68 -86 115 -107 l43 -19 0 -135 c0 -169 11
-214 64 -269 60 -63 82 -66 409 -63 321 3 335 6 392 87 30 42 30 44 35 209 l5
167 855 0 855 0 5 -167 c5 -165 5 -167 35 -209 57 -81 71 -84 392 -87 327 -3
349 0 409 63 53 55 64 100 64 269 l0 135 43 19 c54 24 113 90 127 142 8 29 10
181 7 493 -4 493 -4 495 -67 634 -35 77 -80 143 -143 210 -43 46 -47 53 -31
59 152 48 238 156 238 299 0 86 -14 131 -64 194 -57 72 -138 109 -255 117
-110 8 -189 -7 -242 -45 l-39 -28 -48 146 c-61 187 -104 275 -171 349 -52 57
-168 142 -194 142 -7 0 -11 3 -9 8 2 4 14 38 28 75 14 37 28 67 33 67 4 0 29
-11 55 -24 161 -82 299 -244 363 -426 34 -99 36 -100 148 -100 135 0 215 -15
297 -55 268 -130 344 -468 161 -708 -46 -58 -47 -90 -7 -161 40 -70 77 -182
95 -285 22 -125 22 -911 0 -996 -19 -71 -57 -134 -119 -195 l-46 -44 0 -82 c0
-203 -67 -327 -215 -400 l-60 -29 -335 0 -335 0 -62 29 c-73 33 -154 113 -184
182 -11 25 -24 81 -29 126 -13 131 13 123 -386 123 l-336 0 -19 -24 c-25 -30
-24 -76 1 -101 19 -19 33 -20 303 -20 l283 0 12 -59 c40 -190 195 -351 383
-396 91 -21 636 -21 727 0 232 55 383 241 399 494 l6 96 43 46 c53 58 100 149
120 236 13 57 15 139 12 547 l-4 481 -27 100 c-15 55 -43 133 -62 173 l-34 72
29 44 c125 185 130 446 13 645 -109 186 -293 293 -527 308 l-102 6 -33 72
c-46 103 -106 190 -186 271 -72 74 -191 158 -267 189 l-43 18 0 501 0 501 -23
32 c-15 21 -39 37 -70 47 -97 32 -893 226 -919 225 -16 -1 -228 -53 -473 -115z
m-302 -1686 l50 -63 -47 -21 c-64 -29 -118 -78 -145 -133 -13 -25 -69 -185
-125 -354 -112 -336 -113 -347 -59 -392 l30 -25 723 0 c691 0 724 1 746 19 32
26 32 86 0 112 -22 18 -54 19 -696 19 l-673 0 93 281 c52 154 100 288 107 297
25 29 91 52 156 52 l62 0 243 -182 c133 -100 259 -188 279 -196 34 -13 42 -13
76 0 21 8 147 97 280 196 l242 182 62 0 c65 0 131 -23 156 -52 7 -9 55 -143
107 -297 l93 -281 -152 0 c-140 0 -156 -2 -180 -21 -19 -15 -26 -30 -26 -54 0
-24 7 -39 26 -54 25 -20 39 -21 230 -21 202 0 203 0 232 25 54 45 53 56 -59
392 -56 169 -112 329 -125 354 -28 56 -91 112 -150 135 l-43 16 47 60 c26 34
52 63 59 65 31 12 150 -81 201 -156 32 -48 63 -129 152 -398 62 -186 121 -359
132 -385 17 -41 38 -60 154 -147 146 -110 199 -169 251 -276 59 -124 63 -164
63 -621 0 -401 -1 -412 -21 -438 l-20 -26 -1749 0 -1749 0 -20 26 c-20 26 -21
37 -21 438 0 457 4 497 63 621 52 107 105 166 251 276 116 87 137 106 154 147
11 26 70 199 131 384 120 360 150 424 227 485 50 39 106 73 121 73 6 0 34 -28
61 -62z m-701 -528 c19 -7 36 -24 46 -46 29 -60 29 -102 -1 -184 l-27 -75
-112 0 c-120 0 -142 8 -186 66 -61 82 -7 215 98 240 46 11 149 10 182 -1z
m3197 -19 c47 -29 80 -99 73 -152 -3 -22 -17 -56 -32 -75 -40 -53 -79 -65
-193 -62 l-97 3 -27 75 c-33 92 -34 108 -7 170 27 62 49 71 161 66 67 -3 94
-8 122 -25z m-3094 -2151 l0 -160 -95 0 c-134 0 -135 1 -135 173 0 74 3 137 7
140 3 4 55 7 115 7 l108 0 0 -160z m370 16 c0 -181 3 -176 -126 -176 l-94 0 0
160 0 160 110 0 110 0 0 -144z m2240 -16 l0 -160 -94 0 c-129 0 -126 -5 -126
176 l0 144 110 0 110 0 0 -160z m378 18 c3 -178 3 -178 -133 -178 l-95 0 0
160 0 161 113 -3 112 -3 3 -137z"/>
<path d="M1085 1986 c-113 -52 -160 -148 -153 -315 3 -81 7 -102 27 -129 44
-62 44 -62 438 -62 344 0 359 -1 388 -21 115 -78 329 -163 492 -196 124 -24
442 -24 566 0 166 33 370 114 485 192 l37 25 358 0 c394 0 394 0 438 62 31 43
39 197 15 279 -20 70 -75 135 -140 165 l-51 24 -1425 0 -1425 0 -50 -24z m155
-241 l0 -115 -80 0 -80 0 0 70 c0 111 36 160 117 160 l43 0 0 -115z m470 0 l0
-115 -160 0 -160 0 0 115 0 115 160 0 160 0 0 -115z m310 -65 l0 -180 -42 21
c-24 12 -60 33 -80 46 l-38 23 0 135 0 135 80 0 80 0 0 -180z m310 -45 c0
-151 -3 -225 -11 -225 -5 0 -41 7 -80 16 l-69 16 0 209 0 209 80 0 80 0 0
-225z m310 -10 l0 -235 -80 0 -80 0 0 235 0 235 80 0 80 0 0 -235z m310 26 l0
-209 -69 -16 c-39 -9 -75 -16 -80 -16 -8 0 -11 74 -11 225 l0 225 80 0 80 0 0
-209z m310 74 l0 -135 -37 -23 c-21 -13 -57 -34 -80 -46 l-43 -21 0 180 0 180
80 0 80 0 0 -135z m470 20 l0 -115 -160 0 -160 0 0 115 0 115 160 0 160 0 0
-115z m258 99 c37 -26 52 -67 52 -144 l0 -70 -80 0 -80 0 0 115 0 115 43 0
c23 0 53 -7 65 -16z"/>
<path d="M1116 1219 c-33 -26 -36 -79 -6 -109 19 -19 33 -20 209 -20 l190 0
20 26 c24 30 26 43 10 77 -19 41 -49 47 -228 47 -155 0 -170 -2 -195 -21z"/>
<path d="M3614 1229 c-22 -11 -44 -48 -44 -73 0 -7 9 -25 21 -40 l20 -26 190
0 c176 0 190 1 209 20 25 25 26 71 1 101 -19 23 -23 24 -198 26 -110 1 -186
-2 -199 -8z"/>
<path d="M2226 4720 c-261 -66 -313 -82 -335 -104 l-26 -26 -3 -318 c-2 -192
1 -350 8 -401 19 -146 83 -287 177 -392 21 -23 136 -116 256 -206 195 -146
222 -163 257 -163 35 0 62 17 257 163 120 90 238 185 261 213 92 103 153 241
172 386 7 50 10 209 8 401 l-3 319 -31 27 c-27 24 -76 39 -340 105 -170 42
-318 76 -329 75 -11 0 -159 -36 -329 -79z m264 -745 l0 -655 -158 118 c-197
149 -252 216 -299 367 -16 53 -18 98 -18 384 l0 323 225 58 c124 32 231 58
238 59 9 1 12 -136 12 -654z m410 590 l205 -51 0 -325 c0 -286 -2 -331 -19
-384 -45 -147 -102 -219 -281 -353 -77 -58 -146 -109 -152 -115 -10 -7 -13
122 -13 642 l0 651 28 -7 c15 -3 119 -30 232 -58z"/>
</g>
</svg>
