<svg version="1.0" xmlns="http://www.w3.org/2000/svg"
 width="512.000000pt" height="512.000000pt" viewBox="0 0 512.000000 512.000000"
 preserveAspectRatio="xMidYMid meet">

<g transform="translate(0.000000,512.000000) scale(0.100000,-0.100000)"
fill="#000000" stroke="none">
<path d="M2252 4761 c-7 -4 -19 -37 -27 -73 -25 -122 -85 -212 -166 -254 -69
-34 -68 -62 4 -102 82 -47 136 -129 161 -248 13 -63 26 -83 52 -84 19 0 31 22
43 81 25 119 104 234 182 261 28 10 46 39 34 58 -4 6 -23 19 -43 29 -82 42
-149 144 -173 261 -6 30 -18 61 -27 68 -19 14 -23 15 -40 3z"/>
<path d="M3370 4094 l-147 -145 -109 -16 -109 -16 -422 -421 c-473 -471 -468
-464 -461 -586 9 -165 158 -265 326 -220 43 12 82 48 478 442 l430 429 17 112
17 112 144 145 c79 80 146 153 150 164 5 15 13 17 43 13 80 -13 152 -93 153
-170 0 -63 -31 -101 -329 -401 -327 -329 -319 -318 -309 -426 12 -123 146
-213 269 -180 39 10 78 46 337 303 161 161 295 302 298 315 10 35 -20 72 -59
72 -28 0 -60 -29 -302 -270 -148 -148 -283 -276 -299 -284 -53 -27 -116 15
-116 78 0 26 43 73 304 335 279 281 305 310 321 360 22 68 17 169 -13 227 -29
57 -121 138 -178 158 -55 19 -122 20 -178 5 -27 -8 -41 -8 -49 0 -31 31 -60
12 -207 -135z"/>
<path d="M952 3978 c-7 -7 -12 -23 -12 -36 0 -35 -47 -170 -78 -222 -56 -97
-162 -187 -264 -225 -28 -10 -50 -26 -54 -37 -6 -20 11 -48 30 -48 6 0 40 -14
74 -30 131 -62 253 -228 285 -389 23 -115 70 -111 99 10 27 113 81 212 152
283 54 54 91 78 206 130 14 7 26 22 28 34 3 18 -4 26 -35 38 -97 39 -133 62
-194 123 -75 76 -129 174 -156 286 -9 39 -21 76 -26 83 -12 15 -39 16 -55 0z"/>
<path d="M2232 3575 c-181 -40 -358 -178 -441 -345 -95 -193 -95 -396 0 -590
83 -169 260 -307 444 -345 226 -47 438 16 602 181 129 129 192 283 193 467 0
54 -4 77 -12 77 -7 0 -107 -94 -223 -209 -238 -238 -269 -258 -399 -268 -292
-22 -500 274 -381 542 22 51 57 92 236 270 115 116 209 216 209 223 0 17 -146
15 -228 -3z"/>
<path d="M4213 2828 c-6 -7 -14 -34 -17 -60 -10 -64 -67 -177 -117 -228 -22
-23 -70 -55 -105 -72 -53 -25 -64 -34 -64 -54 0 -20 10 -29 54 -48 64 -29 138
-93 172 -151 29 -50 64 -149 64 -181 0 -13 10 -30 22 -38 34 -24 54 -5 67 63
26 133 119 258 225 302 53 21 75 46 61 69 -3 5 -35 23 -70 40 -106 51 -179
150 -214 293 -15 64 -20 72 -43 75 -13 2 -29 -3 -35 -10z"/>
<path d="M1670 2510 c-14 -4 -77 -25 -140 -45 -63 -20 -127 -46 -143 -57 -20
-14 -67 -98 -166 -297 l-139 -276 -159 -195 c-87 -108 -164 -208 -170 -223 -9
-20 -13 -100 -13 -282 0 -251 0 -254 22 -269 20 -14 190 -16 1613 -16 1423 0
1593 2 1613 16 22 15 22 18 22 270 0 218 -2 260 -17 287 -9 18 -86 117 -171
222 l-154 190 -139 276 c-99 200 -146 282 -166 296 -33 24 -85 43 -215 82
l-98 29 -51 -65 c-29 -35 -48 -68 -43 -72 5 -4 45 -17 89 -29 44 -12 112 -32
150 -45 l70 -23 133 -263 c73 -145 131 -265 128 -268 -3 -3 -67 4 -143 16
-680 104 -1290 106 -1976 5 -98 -14 -181 -24 -183 -21 -3 3 55 123 128 268
l133 263 70 23 c39 13 106 33 150 45 44 12 84 25 88 29 7 5 -89 142 -96 138
-1 0 -13 -4 -27 -9z m-122 -1098 c155 -49 292 -98 304 -108 32 -29 48 -77 48
-146 0 -77 -22 -124 -71 -150 -31 -16 -63 -18 -359 -18 -308 0 -327 1 -358 20
-52 32 -62 69 -62 232 0 129 2 147 23 182 30 53 97 90 152 82 22 -3 167 -46
323 -94z m2059 77 c29 -14 52 -35 68 -63 23 -40 25 -52 25 -185 0 -162 -10
-199 -62 -231 -31 -19 -50 -20 -362 -20 -312 0 -330 1 -361 20 -46 28 -65 75
-65 157 0 74 19 119 62 147 13 8 149 53 303 101 154 47 285 88 290 90 26 9 62
3 102 -16z"/>
<path d="M1124 705 c-4 -8 -4 -64 -2 -123 4 -124 22 -173 78 -210 34 -23 38
-23 281 -20 279 3 282 4 323 84 17 33 21 58 21 159 l0 120 -348 3 c-303 2
-348 0 -353 -13z"/>
<path d="M2923 705 c-3 -9 -4 -65 -1 -124 5 -119 22 -168 72 -205 26 -20 43
-21 275 -24 243 -3 247 -3 280 20 61 41 76 86 76 223 l0 120 -348 3 c-308 2
-348 0 -354 -13z"/>
</g>
</svg>
