<svg version="1.0" xmlns="http://www.w3.org/2000/svg"
 width="512.000000pt" height="512.000000pt" viewBox="0 0 512.000000 512.000000"
 preserveAspectRatio="xMidYMid meet">

<g transform="translate(0.000000,512.000000) scale(0.100000,-0.100000)"
fill="#000000" stroke="none">
<path d="M620 4922 l-40 -67 22 -15 c12 -8 43 -27 69 -42 l48 -28 40 70 39 69
-69 40 -69 40 -40 -67z"/>
<path d="M897 4763 c-24 -43 -34 -70 -28 -76 5 -5 36 -24 68 -43 l58 -32 37
65 c21 35 38 68 38 71 0 4 -31 24 -68 44 l-67 37 -38 -66z"/>
<path d="M1177 4605 c-20 -35 -37 -68 -37 -72 0 -4 30 -25 66 -45 l65 -37 23
37 c66 105 67 99 -25 150 l-55 31 -37 -64z"/>
<path d="M1545 4456 c-25 -25 -25 -26 -25 -216 0 -189 0 -191 25 -215 23 -24
29 -25 160 -25 l135 0 0 -375 0 -376 26 -26 c24 -24 30 -25 91 -20 138 13 257
96 319 223 31 63 37 85 42 163 l5 91 78 0 79 0 0 -189 0 -190 -281 -468 c-155
-257 -302 -510 -326 -561 -25 -51 -59 -145 -76 -210 l-32 -117 0 -741 0 -740
37 -76 c45 -91 103 -147 196 -191 l67 -32 815 0 815 0 67 32 c93 44 151 100
196 191 l37 76 3 675 c3 720 0 787 -44 953 -37 139 -86 232 -393 741 l-281
468 0 190 0 189 135 0 c133 0 137 1 162 26 l25 25 -4 152 c-4 130 -9 162 -30
218 -34 93 -68 147 -132 212 -62 63 -119 99 -215 136 l-66 26 -793 3 -792 3
-25 -25z m295 -216 l0 -80 -80 0 -80 0 0 80 0 80 80 0 80 0 0 -80z m1362 43
c92 -43 151 -101 194 -189 31 -63 37 -85 42 -163 l5 -91 -722 0 -721 0 0 240
0 241 568 -3 567 -3 67 -32z m-1042 -659 c0 -88 -18 -133 -77 -191 -81 -82
-83 -79 -83 97 l0 150 80 0 80 0 0 -56z m960 -104 l0 -160 -240 0 -240 0 0
160 0 160 240 0 240 0 0 -160z m270 -711 c129 -216 237 -396 238 -400 2 -5
-328 -9 -748 -9 -420 0 -750 4 -748 9 2 4 109 184 238 400 l235 391 275 0 275
0 235 -391z m363 -626 c79 -182 87 -251 87 -779 l0 -444 -960 0 -960 0 0 439
c0 531 8 605 87 784 l26 57 847 0 847 0 26 -57z m87 -1519 c0 -78 -5 -154 -12
-178 -16 -55 -99 -138 -154 -154 -59 -17 -1529 -17 -1588 0 -55 16 -138 99
-154 154 -7 24 -12 100 -12 178 l0 136 960 0 960 0 0 -136z"/>
<path d="M2665 2055 c-23 -22 -25 -32 -25 -120 l0 -95 -95 0 c-88 0 -98 -2
-120 -25 -25 -24 -25 -26 -25 -215 0 -189 0 -191 25 -215 22 -23 32 -25 120
-25 l95 0 0 -95 c0 -88 2 -98 25 -120 24 -25 26 -25 215 -25 189 0 191 0 215
25 23 22 25 32 25 120 l0 95 95 0 c88 0 98 2 120 25 25 24 25 26 25 215 0 189
0 191 -25 215 -22 23 -32 25 -120 25 l-95 0 0 95 c0 88 -2 98 -25 120 -24 25
-26 25 -215 25 -189 0 -191 0 -215 -25z m295 -230 c0 -88 2 -98 25 -120 22
-23 32 -25 120 -25 l95 0 0 -80 0 -80 -95 0 c-88 0 -98 -2 -120 -25 -23 -22
-25 -32 -25 -120 l0 -95 -80 0 -80 0 0 95 c0 88 -2 98 -25 120 -22 23 -32 25
-120 25 l-95 0 0 80 0 80 95 0 c88 0 98 2 120 25 23 22 25 32 25 120 l0 95 80
0 80 0 0 -95z"/>
<path d="M560 4240 l0 -80 80 0 80 0 0 80 0 80 -80 0 -80 0 0 -80z"/>
<path d="M880 4240 l0 -80 80 0 80 0 0 80 0 80 -80 0 -80 0 0 -80z"/>
<path d="M1200 4240 l0 -80 80 0 80 0 0 80 0 80 -80 0 -80 0 0 -80z"/>
<path d="M1203 3991 c-34 -20 -63 -40 -63 -44 0 -4 17 -37 37 -72 l37 -64 55
31 c88 49 85 44 50 107 -46 83 -45 83 -116 42z"/>
<path d="M936 3835 c-31 -18 -62 -37 -67 -42 -6 -6 4 -33 29 -75 l38 -66 67
36 c37 21 67 42 67 47 -1 6 -18 38 -38 72 l-38 61 -58 -33z"/>
<path d="M647 3669 c-37 -22 -66 -43 -64 -47 2 -4 20 -35 41 -69 l37 -62 69
40 68 40 -40 69 c-22 39 -40 70 -41 70 -1 -1 -32 -19 -70 -41z"/>
</g>
</svg>
