<svg version="1.0" xmlns="http://www.w3.org/2000/svg"
 width="512.000000pt" height="512.000000pt" viewBox="0 0 512.000000 512.000000"
 preserveAspectRatio="xMidYMid meet">

<g transform="translate(0.000000,512.000000) scale(0.100000,-0.100000)"
fill="#000000" stroke="none">
<path d="M2221 4771 c-10 -10 -22 -36 -25 -57 -23 -121 -122 -226 -252 -268
-97 -31 -96 -111 0 -142 130 -42 229 -148 252 -268 9 -48 35 -76 72 -76 36 0
57 23 72 80 35 130 137 236 255 264 43 11 65 34 65 71 0 33 -25 65 -52 65 -8
0 -42 14 -75 30 -96 48 -165 134 -193 240 -6 25 -19 53 -27 63 -21 22 -68 22
-92 -2z m119 -471 l-75 -75 -36 45 c-19 25 -52 58 -72 73 l-37 28 70 69 c39
38 70 74 70 79 0 6 35 -24 78 -67 l77 -77 -75 -75z"/>
<path d="M3642 4216 c-24 -8 -61 -26 -81 -40 -33 -23 -42 -25 -67 -16 -60 23
-91 6 -224 -124 l-125 -123 -90 -13 -90 -12 -155 -154 -155 -153 -65 21 c-55
19 -88 22 -215 22 -136 0 -157 -2 -230 -27 -115 -38 -199 -91 -290 -182 -142
-142 -203 -283 -212 -485 -5 -114 0 -151 43 -297 4 -16 2 -23 -7 -23 -24 0
-282 -80 -335 -104 -89 -41 -114 -75 -263 -375 l-139 -277 -162 -200 c-90
-109 -172 -219 -184 -244 -20 -42 -21 -65 -24 -330 -3 -284 -3 -285 21 -330
16 -30 40 -55 72 -75 48 -30 51 -30 207 -33 l158 -4 0 -76 c1 -116 37 -181
122 -217 31 -12 86 -15 305 -15 239 0 272 2 308 19 81 37 115 101 115 216 l0
75 490 0 490 0 0 -72 c0 -96 31 -165 91 -205 l42 -28 271 -3 c298 -4 325 0
383 51 49 43 63 82 63 177 l0 80 144 0 c80 0 158 5 177 11 51 18 97 56 120
100 19 38 20 55 17 332 -3 280 -4 294 -26 337 -12 25 -92 131 -178 235 l-156
190 -135 270 c-74 149 -146 285 -160 304 -14 18 -46 46 -72 62 -44 29 -278
110 -354 124 -30 6 -37 11 -31 24 59 142 65 347 15 494 l-19 54 145 144 c79
79 148 151 153 160 5 9 16 59 25 110 l15 93 126 127 126 128 -4 43 c-3 24 -8
50 -12 59 -17 38 115 65 172 35 31 -16 74 -61 91 -93 14 -27 14 -93 0 -130 -5
-15 -147 -165 -313 -333 -328 -329 -333 -336 -324 -430 11 -107 94 -191 198
-198 106 -8 109 -6 422 306 158 156 292 298 299 314 10 25 9 33 -8 56 -11 16
-32 28 -48 30 -25 3 -60 -28 -314 -281 -157 -157 -296 -288 -309 -292 -53 -16
-122 47 -106 98 3 12 142 159 309 327 338 341 340 344 340 475 0 53 -6 82 -24
118 -29 60 -97 129 -154 156 -57 28 -158 35 -215 17z m-159 -214 c15 -17 10
-24 -94 -127 -61 -61 -114 -117 -119 -126 -5 -9 -16 -59 -25 -110 l-15 -94
-327 -328 c-181 -181 -348 -342 -372 -358 -66 -42 -126 -36 -184 19 -36 35
-50 85 -36 137 9 34 63 92 361 391 l350 351 96 16 96 16 115 116 c64 63 121
115 127 115 6 0 18 -8 27 -18z m-1006 -513 c35 -6 63 -14 63 -17 0 -3 -76 -83
-169 -176 -148 -151 -170 -177 -186 -225 -46 -141 17 -287 153 -349 45 -20 65
-23 125 -20 42 2 89 12 112 23 23 11 112 89 207 183 l166 164 12 -59 c17 -79
8 -222 -19 -300 -84 -248 -315 -413 -576 -413 -248 0 -482 172 -562 413 -22
68 -26 100 -26 187 -1 91 3 116 29 190 55 156 158 275 299 345 121 59 240 77
372 54z m-687 -1039 c22 -28 28 -41 18 -44 -7 -2 -44 -12 -83 -21 -94 -22
-287 -85 -303 -98 -17 -14 -302 -581 -302 -601 0 -8 11 -27 24 -42 l23 -28
179 27 c392 60 637 79 1029 79 386 0 669 -22 1013 -77 84 -14 162 -25 172 -25
28 0 60 35 60 65 0 30 -270 573 -296 597 -23 20 -136 59 -287 98 -60 16 -111
30 -112 32 -2 2 11 20 29 41 l32 39 65 -17 c121 -30 289 -87 322 -109 26 -17
60 -76 177 -308 l145 -286 155 -191 c85 -105 163 -208 172 -229 15 -32 18 -72
18 -284 0 -235 -1 -249 -20 -268 -20 -20 -33 -20 -1649 -20 l-1630 0 -20 26
c-20 25 -21 39 -21 245 0 120 5 240 11 267 9 42 34 79 176 253 l165 204 135
270 c74 149 149 285 166 302 23 25 57 41 136 67 113 38 238 74 258 75 6 1 26
-17 43 -39z m1229 -205 c36 -9 99 -28 140 -41 l76 -24 98 -202 97 -201 -47 7
c-394 57 -595 71 -1018 70 -395 0 -576 -11 -886 -54 -78 -11 -149 -20 -156
-20 -8 0 26 78 87 199 l100 200 92 30 c112 35 236 67 300 76 43 7 56 3 125
-33 93 -48 164 -70 267 -81 146 -17 327 21 445 93 l54 33 81 -17 c45 -10 110
-26 145 -35z m-1271 -1675 c-6 -110 7 -105 -293 -105 -300 0 -287 -5 -293 105
l-4 70 297 0 297 0 -4 -70z m1832 5 c0 -57 -3 -69 -25 -90 l-24 -25 -236 0
c-232 0 -267 4 -287 34 -4 6 -8 41 -8 79 l0 67 290 0 290 0 0 -65z"/>
<path d="M1125 1431 c-86 -39 -105 -87 -105 -263 0 -151 11 -186 70 -226 l34
-23 342 3 342 3 27 25 c38 35 55 80 55 147 0 64 -27 130 -62 152 -28 17 -616
201 -643 201 -11 0 -38 -9 -60 -19z m318 -197 c133 -41 257 -80 275 -85 30
-10 32 -14 32 -55 l0 -44 -295 0 -295 0 0 123 c0 68 3 127 7 130 12 13 34 7
276 -69z"/>
<path d="M3390 1404 c-424 -132 -461 -145 -493 -174 -31 -27 -32 -32 -35 -118
-4 -103 9 -141 61 -172 30 -19 52 -20 366 -20 317 0 335 1 366 20 55 34 65 69
65 235 0 158 -5 178 -57 228 -28 26 -80 47 -113 47 -8 -1 -80 -21 -160 -46z
m189 -108 c8 -9 11 -52 9 -127 l-3 -114 -297 -3 -298 -2 0 45 c0 25 3 45 8 45
4 1 126 39 272 85 146 46 272 84 281 85 9 0 22 -6 28 -14z"/>
<path d="M913 3985 c-13 -9 -25 -34 -32 -64 -43 -203 -181 -355 -381 -421 -71
-23 -90 -40 -90 -80 0 -37 24 -56 101 -80 161 -49 311 -201 355 -360 31 -112
34 -118 62 -128 28 -10 65 -1 77 17 3 6 15 43 26 82 47 170 156 298 313 369
34 15 76 31 93 35 58 12 82 75 43 110 -11 10 -48 27 -83 39 -185 62 -312 200
-367 398 -26 95 -63 121 -117 83z m71 -320 c38 -64 129 -158 196 -203 l59 -40
-51 -32 c-70 -46 -149 -126 -196 -198 l-40 -62 -27 45 c-37 64 -136 167 -201
210 l-55 37 68 47 c76 54 125 104 179 186 20 30 38 55 39 55 2 0 15 -20 29
-45z"/>
<path d="M4228 2813 c-9 -10 -24 -47 -34 -82 -39 -141 -137 -239 -288 -291
-63 -21 -85 -54 -64 -97 10 -20 29 -33 73 -48 81 -28 122 -54 182 -118 60 -63
74 -88 102 -183 22 -74 32 -84 80 -84 34 0 57 24 65 70 11 63 64 159 116 210
48 49 156 110 193 110 41 0 73 70 49 108 -5 7 -38 23 -75 37 -81 29 -143 70
-191 127 -41 47 -80 124 -91 178 -11 57 -31 80 -69 80 -19 0 -40 -7 -48 -17z
m137 -359 c33 -34 69 -66 80 -73 20 -11 19 -12 -5 -29 -45 -31 -107 -91 -135
-132 -15 -22 -30 -40 -34 -40 -3 1 -24 26 -45 56 -22 30 -61 71 -88 91 -26 21
-48 40 -48 43 0 3 22 22 50 43 27 20 68 62 92 93 l42 56 15 -23 c8 -13 42 -51
76 -85z"/>
</g>
</svg>
